<?xml version="1.0" encoding="utf-8"?>
<!DOCTYPE svg PUBLIC "-//W3C//DTD SVG 1.1//EN" "http://www.w3.org/Graphics/SVG/1.1/DTD/svg11.dtd">

<svg version="1.1" id="Layer_1" xmlns="http://www.w3.org/2000/svg" xmlns:xlink="http://www.w3.org/1999/xlink" x="0px" y="0px"
	 viewBox="0 0 770 970" enable-background="new 0 0 770 970" xml:space="preserve">
	<style>
		.bgcolor {
			fill: #0B5483;
		}
	</style>

	<path fill-rule="evenodd" clip-rule="evenodd" class="bgcolor" d="M13.4,966c0-46.4,0-92.5,0-139.2c248,0,495.9,0,744.2,0
		c0,46.5,0,92.6,0,139.2C509.5,966,261.6,966,13.4,966z M220.6,839.3c0,38.7,0,76.4,0,113.1c20.7,0,40.8,0.6,60.9-0.2
		c11-0.5,16.4-7.5,16.9-18.6c0.2-4.8,0-9.6,0.2-14.4c0.4-12-0.5-23.3-17.1-27c16-5.3,15.1-16.4,14.5-28.3
		c-0.6-12.5-12.3-24.1-23.1-24.4C255.5,838.9,238.3,839.3,220.6,839.3z M479.5,839.6c0,30.6-0.2,60.4,0.1,90.2
		c0.1,7.9,4.3,14.7,10.7,18.6c10.4,6.3,22,9.3,34.3,8c19-2,32.9-12.5,32-35.3c-0.9-23.1-0.1-46.2-0.1-69.3c0-4,0-8,0-11.8
		c-11.8,0-22.6,0-33.9,0c0,28.8,0.1,57-0.1,85.1c0,3.9,1.9,9.5-4.3,10.2c-0.9,0.1-3.6-6.6-3.6-10.2c-0.3-26-0.2-52-0.2-77.9
		c0-2.5,0-5,0-7.6C502.2,839.6,491.3,839.6,479.5,839.6z M427.7,839.8c-12.2,0-23.4,0-34.8,0c0,38.1,0,75.8,0,113.4
		c11.9,0,23.2,0,35,0c0-13.5,0-26.4,0-39.3c4.1,10.5,6.9,21.3,10.2,32c0.9,2.9,3.1,7.4,4.9,7.6c10.4,0.7,20.9,0.4,32.4,0.4
		c-5-14.9-9.6-28.7-14.4-42.4c-3.1-9-6.8-17.9-4-27.7c1.6-5.3,3.7-10.4,5.6-15.6c3.4-9.3,6.9-18.6,10.7-28.7
		c-9.6,0-17.7,0.2-25.8-0.1c-4.2-0.1-6.3,0.9-7.6,5.3c-3.2,10.6-7.3,21-11,31.5c-0.4-0.1-0.8-0.1-1.1-0.2
		C427.7,864,427.7,852.1,427.7,839.8z M387.7,953.4c-6.4-38.4-12.7-75.9-19.1-114.2c-13.8,0-28.1,0.2-42.5-0.1
		c-5.5-0.1-7.4,1.6-8.2,7.1c-3.4,24.5-7.3,49-11,73.5c-1.7,11.1-3.2,22.2-4.9,33.7c12.4,0,24.1,0,36.1,0c0.8-6.7,1.6-13.1,2.4-19.8
		c3.6,0,7,0,10.5,0c0.8,7,1.5,13.3,2.3,20.2c9.4,0,18.2,0,27.1,0C382.6,953.8,384.7,953.6,387.7,953.4z"/>
	<path fill-rule="evenodd" clip-rule="evenodd" class="bgcolor" d="M6.9,393.3c20.6,0,40.9,0,61.1,0c1.6-10.4,1.6-20.9,5.1-30
		c6.9-18.3,14.5-36.6,24.1-53.6c7.4-13.2,9.8-26.8,10.8-41.2c0.6-9.8,1-19.7,0.7-29.6c-0.1-4.5-2.6-8.9-3.1-13.5
		c-0.8-8.5-0.4-17.1-1.4-25.6c-2.8-22.1,7-43.4,4.1-65.5c-0.6-4.7-1.3-9.4-2-14.6c-5.3,1.8-7.2,4.7-7.3,9.7
		c-0.1,12.5-0.7,25-1.3,37.5c-0.1,2.5-1.7,4.9-2.1,7.4c-0.5,2.8-0.8,5.8-0.6,8.7c0.7,9.4,1.7,18.7,2.6,28c-0.9,0.1-1.9,0.2-2.8,0.3
		c-0.7-4-1.4-7.9-2.1-11.9c-0.6,0-1.1,0.1-1.7,0.1c-0.2,3.9-0.5,7.8-0.7,11.7c-2.3-1.1-4.5-2.2-6.9-3.2c-6.6-2.6-8.3-7.7-8.5-14.3
		c-0.2-4.9,0-11.7-2.9-14.1c-7.6-6.5-4.4-14.2-4.9-21.5c-0.7-10.6-1.2-21.1-1.5-31.7c-0.4-11.5,5.7-20.4,13.4-27.6
		c8.1-7.6,17.9-13.3,26.3-20.6c6.6-5.7,11.4-13.8,18.5-18.8c9-6.4,10.4-13.2,7.6-23.3c-1.4-5.3-0.5-12.3,1.9-17.3
		c7.2-14.9,26.7-17.7,38-5.4c2.8,3.1,2.3,9.4,3.1,14.3c0.8,4.8,1.3,9.6,2.1,15.3c-1.3,3.1-4.2,7.3-4.8,11.8c-0.8,5.7-4,5.5-8,5.5
		c-9,0-11,2.2-7.6,10.6c3.4,8.4,8.6,16,12.4,24.3c5.3,11.5,10,23.2,15.3,34.7c0.9,1.9,3.1,3.5,5.1,4.5c3.4,1.7,7,3,10.5,4.3
		c8.1,2.9,16.2,5.6,24.3,8.3c4.8,1.6,9.7,2.9,14.3,5c1.7,0.8,3.9,3.7,3.5,5.2c-0.9,4.1-3,8-4.7,11.9c-0.2,0.5-1.5,1.1-1.7,0.9
		c-4.8-3.2-10.1-0.7-15-1.5c-10-1.7-19.9-4.5-29.7-7.4c-5.9-1.7-11.4-4.5-17.9-7.1c0,6.3,0,12.8,0,18.9c4.6,1.4,8.2,3.3,11.8,3.3
		c6.4,0.1,5.8,7.4,11,9.2c10.6,3.6,20.6,8.6,31.1,12.5c16.3,6.1,31.1,14.3,42.7,27.5c1.5,1.7,1.4,5.2,1.2,7.9
		c-1.7,20.8-4,41.6-5.2,62.4c-0.7,12,4.5,16.8,16.7,18.3c4.5,0.6,9,1.4,13.4,2.1c0.1,0.9,0.1,1.7,0.2,2.6c-4.7,2-9.2,5-14.1,5.8
		c-14.2,2.2-28.6,3.3-42.8,5c-4,0.5-5.5-1.2-6.3-4.9c-5.6-25.5-4.6-51.2-2.7-76.9c0.1-1.8,1.2-3.5,2-5.6c-19-4.9-37.8-9.9-56.7-14.7
		c-2.7-0.7-5.1-1.8-7.1,2.2c-0.9,1.8-5.5,2.3-8.4,2.3c-5.4,0.1-7.9,1.4-8.6,7.6c-2.2,18.6-4.2,37.3-8.5,55.5
		c-2.5,10.4-8.5,20.3-14.7,29.3c-10,14.5-18.2,29.6-22.4,46.4c7.3,10.5,19.7,9.6,31.7,12.9c-8.1,8.2-16.6,7.1-24.3,7.5
		c-7.9,0.4-15.9-0.9-23.9-1.5c0,0.9-0.1,1.8-0.1,2.7c29.5,0,59,0,89.1,0c0,90.8,0,180.3,0,270.4c-56.7,0-113.2,0-170.4,0
		C6.9,573.1,6.9,483.5,6.9,393.3z M97.6,510.1c8.8,0,16.7,0,24.5,0c19.3,0,19.3,0,17.7-19.4c-1.1-12.8-9.8-24.1-20-27.2
		c-19.5-5.9-39-8.2-58.2,0.1c-6.5,2.8-13.4,7-17.4,12.5c-8.2,11-9.6,43.5,3.8,54.8c10.8,9.1,22.8,17.1,35.3,23.8
		c14.5,7.9,18.2,12.7,17.4,29.4c-0.3,6.1-2.9,9.5-9.1,9.5c-6.4,0-7.8-4.4-7.8-9.7c0-7.1,0-14.3,0-22.2c-7.8,0-14.7,0-21.6,0
		c-7.1,0-14.2,0-21.8,0c0,8-0.3,15.2,0.1,22.3c1.2,23.8,21.7,34.4,41.2,35.9c7.9,0.6,15.9,0.6,23.7,0c13-1,24.9-6,32.8-16.5
		c8.4-11.1,6.8-24.7,5.2-37.5c-0.9-7.1-3-15-7.3-20.5c-9.7-12.6-23.6-20.4-37.9-26.9c-11.7-5.3-18.2-16.3-14.8-27.3
		c1.4-4.4,4.4-7.1,8.4-5.8c2.5,0.8,5.1,4.6,5.6,7.4C98.2,498,97.6,503.3,97.6,510.1z"/>
	<path fill-rule="evenodd" clip-rule="evenodd" class="bgcolor" d="M757.3,663c-56.5,0-112.6,0-169.4,0c0-151.4,0-302.7,0-454.3
		c56.1,0,112.4,0,169.4,0C757.3,359.7,757.3,511,757.3,663z M669.2,555c8.9,0,17.4,0.8,25.6-0.2c18.8-2.1,27.1-9.6,28.3-26.4
		c0.9-13.4,0.8-27-0.1-40.4c-0.6-9.5-3.6-19.1-13-23.5c-6.6-3-14.2-4.7-21.5-5.1c-18.2-1-36.5-0.7-54.7-1.6c-7.1-0.3-8.8,2-8.7,8.8
		c0.3,48.4,0.2,96.8,0.2,145.2c0,2.6,0.2,5.1,0.4,7.7c14.9,0,28.9,0,43.5,0C669.2,597.9,669.2,576.8,669.2,555z"/>
	<path fill-rule="evenodd" clip-rule="evenodd" class="bgcolor" d="M393.4,662.8c0-131.2,0-261.6,0-392.6c56.9,0,113.6,0,170.6,0
		c0,131,0,261.6,0,392.6C507.1,662.8,450.6,662.8,393.4,662.8z M443.7,458.6c0,53.9,0,107.4,0,161c26.4,0,52.2,0,78.4,0
		c0-10.6,0-20.8,0-31.8c-11.8,0-23.2,0-34.6,0c0-12,0-23.1,0-34.6c8.5,0,16.4,0.2,24.3-0.2c1.8-0.1,5-2.4,5.1-3.8
		c0.5-9,0.2-18.1,0.2-28.1c-10.6,0-20.3,0-29.6,0c0-10.4,0-19.9,0-30c10.8,0,21,0,30.9,0c0-11.1,0-21.6,0-32.5
		C493.3,458.6,468.8,458.6,443.7,458.6z"/>
	<path fill-rule="evenodd" clip-rule="evenodd" class="bgcolor" d="M369.3,662.9c-56.8,0-113.1,0-169.9,0c0-110,0-219.6,0-329.9
		c56.4,0,112.8,0,169.9,0C369.3,442.5,369.3,552.4,369.3,662.9z M261.6,619.4c16.1,0,31.5,0,47.5,0c0-42.9,0-85.2,0-128.3
		c9.8,0,19,0,28.2,0c0-11.3,0-21.8,0-32.5c-34.9,0-69.4,0-104,0c0,11.2,0,21.9,0,33.1c9.6,0,18.6,0,28.3,0
		C261.6,534.6,261.6,576.9,261.6,619.4z"/>
	<path fill-rule="evenodd" clip-rule="evenodd" class="bgcolor" d="M602.8,741.3c0,22.3,0,44.5,0,67.3c-9.7,0-18.9,0-28.7,0
		c0-37.1,0-74,0-111.4c14,0,28.1,0,43,0c2.7,16,5.5,32.3,8.3,48.6c0.5,0,1.1,0,1.6,0c1.7-16.1,3.5-32.2,5.3-48.7c14.7,0,29,0,43.8,0
		c0,37.1,0,74.3,0,111.7c-9.8,0-19,0-29,0c0-23.1,0-45.9,0-68.6c-0.5,0-1-0.1-1.5-0.1c-3.6,22.9-7.2,45.7-10.9,68.8
		c-6.5,0-12.4,0-19,0c-3.8-22.6-7.6-45.2-11.4-67.7C603.9,741.2,603.3,741.2,602.8,741.3z"/>
	<path fill-rule="evenodd" clip-rule="evenodd" class="bgcolor" d="M417.1,808.8c0-37.6,0-74.3,0-111.5c15.5,0,30.7-0.5,45.9,0.2
		c6.5,0.3,13.5,1.9,19.1,5c4.4,2.5,9.7,8.1,9.9,12.5c1.2,24.2,1.3,48.5,1.1,72.8c-0.1,14.4-6.6,19.4-20.8,20.6
		C454.2,810,435.9,808.8,417.1,808.8z M450.8,790.3c6.9,0.2,8.9-3.7,9-8.7c0.2-19.5,0.2-38.9,0.1-58.4c0-5.6-3-8.1-9.1-7.2
		C450.8,740.9,450.8,765.3,450.8,790.3z"/>
	<path fill-rule="evenodd" clip-rule="evenodd" class="bgcolor" d="M344.4,696.9c16.2,0,31.2,0,47,0c6.4,37.1,12.8,74.1,19.3,111.8
		c-11.6,0-22.5,0-33.8,0c-0.7-6.5-1.5-12.8-2.2-19.5c-3.6,0-6.9,0-10.8,0c-0.8,6.5-1.6,12.9-2.5,19.5c-11.5,0-22.6,0-34.3,0
		C333,771.1,338.7,734.2,344.4,696.9z M369.7,726.6c-0.3,0-0.6,0-0.9,0c-1.9,13.9-3.7,27.7-5.6,41.8c4.1,0,7.1,0,10.3,0
		C372.2,754.2,370.9,740.4,369.7,726.6z"/>
	<path fill-rule="evenodd" clip-rule="evenodd" class="bgcolor" d="M238.6,808.8c-11.4,0-22.4,0-33.7,0c-0.8-6.6-1.6-13-2.4-19.7
		c-3.5,0-6.8,0-10.7,0c-0.8,6.2-1.6,12.6-2.4,19.5c-11.1,0-22.2,0-34.2,0c5.7-37.3,11.3-74.2,17-111.5c15.8,0,31.3,0,47.2,0
		C225.9,734.3,232.2,771.3,238.6,808.8z M197.6,731.8c-0.6,0-1.1,0-1.6,0c-1.6,12.2-3.2,24.3-4.8,36.6c4.2,0,7.2,0,10.7,0
		C200.3,755.8,198.9,743.8,197.6,731.8z"/>
	<path fill-rule="evenodd" clip-rule="evenodd" class="bgcolor" d="M288.3,764.8c11.8,0,22.3,0,34.7,0c-1.2,9.4-1.3,18.8-3.8,27.5
		c-1.3,4.7-6.2,8.9-10.4,12c-14.2,10.5-37.6,10.1-52.2,0.4c-7.1-4.7-11.1-11.1-11.2-19c-0.5-22.6-0.7-45.2-0.1-67.8
		c0.2-10.1,12.2-19.6,25.8-22.8c14.9-3.5,28.8-0.7,41.1,7.8c3.9,2.7,7.3,8.2,8.2,12.9c1.9,9.3,1.8,19,2.6,29.1c-11.9,0-22.5,0-34.5,0
		c0-8.2,0-16.3,0-24.5c0-3.9-1-8.2-5.4-7.6c-2.2,0.3-5.2,5-5.2,7.8c-0.4,21.4-0.4,42.8,0.1,64.3c0.1,2.8,3.4,5.5,5.2,8.2
		c1.8-2.8,4.7-5.4,5-8.3C288.8,778.4,288.3,771.7,288.3,764.8z"/>
	<path fill-rule="evenodd" clip-rule="evenodd" class="bgcolor" d="M540.5,740.1c6.4,0,12.6,0,19.1,0c0,7.3,0,13.9,0,21.4
		c-4.8,0-9.3,0.2-13.8-0.1c-4.2-0.2-6.2,1.2-5.9,5.7c0.3,6,0.1,12,0.1,18.9c7.7,0,14.9,0,22.8,0c0,8,0,15,0,22.6
		c-18.4,0-36.7,0-55.4,0c0-37.2,0-74.1,0-111.5c17.8,0,35.5,0,53.6,0c0,7.1,0,14.2,0,22c-6.6,0-13.2,0-20.4,0
		C540.5,726.1,540.5,732.4,540.5,740.1z"/>
	<path fill-rule="evenodd" clip-rule="evenodd" class="bgcolor" d="M735.9,808.7c-10,0-19.3,0-29.1,0c-2.1-18.9,2.1-38.2-5.4-56.8
		c-7.2-17.7-12.3-36.2-18.6-55.3c9.6,0,18.6-0.2,27.5,0.2c1.4,0.1,3.6,2.8,3.9,4.6c1.8,10.1,3.1,20.3,4.6,30.5
		c0.3,1.7,0.9,3.4,1.7,6.5c3.1-13.5,5.6-25.4,8.6-37.2c0.5-1.9,3.5-4.3,5.5-4.4c8.4-0.5,16.8-0.2,25.9-0.2
		c-4.7,13.9-8.8,27.6-14.1,40.8c-7.8,19.4-12.7,39.1-10.6,60.2C736.2,801,735.9,804.4,735.9,808.7z"/>
	<path fill-rule="evenodd" clip-rule="evenodd" class="bgcolor" d="M53.8,719.5c0-8,0-15.1,0-22.5c23.8,0,47.1,0,71.1,0
		c0,7.2,0,14.3,0,22.1c-5.7,0-11.4,0-18,0c0,30.1,0,59.6,0,89.5c-11.4,0-21.8,0-33.1,0c0-29.3,0-58.8,0-89.1
		C66.7,719.5,60.4,719.5,53.8,719.5z"/>
	<path fill-rule="evenodd" clip-rule="evenodd" class="bgcolor" d="M44.6,808.9c-10.7,0-20.7,0-31.2,0c0-37.2,0-74.2,0-111.7
		c10.1,0,20.3,0,31.2,0C44.6,734.1,44.6,771.2,44.6,808.9z"/>
	<path fill-rule="evenodd" clip-rule="evenodd" class="bgcolor" d="M255.9,903.8c6.6-1.9,9.2,0.6,8.9,7c-0.2,4.3-0.3,8.6,0.1,12.9
		c0.5,6.2-2.4,8.7-9,8.6C255.9,922.9,255.9,913.6,255.9,903.8z"/>
	<path fill-rule="evenodd" clip-rule="evenodd" class="bgcolor" d="M255.6,883.8c0-8.3,0-16.1,0-24c8.1,0,9.2,1.2,9.2,10.8
		C264.9,882.5,264.2,883.7,255.6,883.8z"/>
	<path fill-rule="evenodd" clip-rule="evenodd" class="bgcolor" d="M350,911.1c-3.6,0-6.3,0-9.9,0c1.6-12.1,3.2-23.8,4.7-35.4
		c0.5,0,1,0,1.5,0C347.5,887.4,348.7,899.1,350,911.1z"/>
	<path fill-rule="evenodd" clip-rule="evenodd" class="bgcolor" d="M669.4,526.3c0-12.8,0-25.7,0-38.5c10-2.2,14.4,1,14.6,10.5
		c0.1,5.5,0.2,11,0,16.6C683.7,525.8,680.7,528.2,669.4,526.3z"/>
</svg>
